<svg xmlns="http://www.w3.org/2000/svg" style="display:none">
<symbol id="mic" viewBox="0 0 24 24">
  <path d="M12 3a3 3 0 0 1 3 3v5a3 3 0 1 1-6 0V6a3 3 0 0 1 3-3z"/>
  <path d="M5 11a7 7 0 0 0 14 0"/>
  <path d="M12 18v3"/>
</symbol><symbol id="ai-chip" viewBox="0 0 24 24">
  <rect x="6" y="6" width="12" height="12" rx="2"/>
  <path d="M10.5 12h3M12 10.5v3"/>
  <path d="M12 2v2M12 20v2M2 12h2M20 12h2M5 5l1.5 1.5M17.5 17.5L19 19M19 5l-1.5 1.5M5 19l1.5-1.5"/>
</symbol><symbol id="realtime" viewBox="0 0 24 24">
  <circle cx="12" cy="12" r="9"/>
  <path d="M13 7l-3 5h3l-2 5"/>
</symbol><symbol id="shield" viewBox="0 0 24 24">
  <path d="M12 3l7 3v5c0 5-3.5 8-7 10-3.5-2-7-5-7-10V6l7-3z"/>
  <rect x="9" y="9" width="6" height="6" rx="2"/>
  <path d="M12 9v6"/>
</symbol><symbol id="user-check" viewBox="0 0 24 24">
  <circle cx="9" cy="8" r="3"/>
  <path d="M4 19c.6-2.6 2.9-4 5-4s4.4 1.4 5 4"/>
  <path d="M16 12l2 2 4-4"/>
</symbol><symbol id="users" viewBox="0 0 24 24">
  <circle cx="8" cy="9" r="3"/>
  <circle cx="16" cy="11" r="3"/>
  <path d="M3 20c.6-2.6 2.9-4 5-4s4.4 1.4 5 4"/>
  <path d="M11 20c.5-1.9 2.2-3 4-3 1.8 0 3.5 1.1 4 3"/>
</symbol><symbol id="wave" viewBox="0 0 24 24">
  <path d="M4 12v-2m0 10v-2"/>
  <path d="M8 20V4"/>
  <path d="M12 20V6"/>
  <path d="M16 20V8"/>
  <path d="M20 12v-2m0 10v-2"/>
</symbol><symbol id="clipboard-soap" viewBox="0 0 24 24">
  <rect x="6" y="5" width="12" height="14" rx="2"/>
  <path d="M9 5v-1.5a1.5 1.5 0 0 1 1.5-1.5h3A1.5 1.5 0 0 1 15 3.5V5"/>
  <path d="M9 11h6"/>
  <path d="M9 15h4"/>
</symbol><symbol id="record" viewBox="0 0 24 24">
  <circle cx="12" cy="12" r="9"/>
  <circle cx="12" cy="12" r="4" fill="currentColor" stroke="none"/>
</symbol><symbol id="save-check" viewBox="0 0 24 24">
  <path d="M5 5h10l4 4v10a2 2 0 0 1-2 2H5a2 2 0 0 1-2-2V7a2 2 0 0 1 2-2z"/>
  <path d="M9 5v6h6"/>
  <path d="M8 17l2.5 2.5L18 12"/>
</symbol><symbol id="step" viewBox="0 0 24 24">
  <circle cx="12" cy="12" r="9"/>
  <path d="M11 8l-2 2h3v6"/>
</symbol><symbol id="shield-e2e" viewBox="0 0 24 24">
  <path d="M12 3l7 3v5c0 5-3.5 8-7 10-3.5-2-7-5-7-10V6l7-3z"/>
  <path d="M8 12h8"/>
  <path d="M9.5 10.5l-1.5 1.5 1.5 1.5"/>
  <path d="M14.5 13.5l1.5-1.5-1.5-1.5"/>
</symbol>
</svg>